<mxfile host="app.diagrams.net" modified="2022-11-21T12:03:56.092Z" agent="5.0 (Windows NT 10.0; Win64; x64) AppleWebKit/537.36 (KHTML, like Gecko) Chrome/107.0.0.0 Safari/537.36" etag="o47bo4MUy38Y7E6o6Ffw" version="20.5.3" type="github">
  <diagram id="vE1TxKXYg_U1ATlZ09mh" name="Page-1">
    <mxGraphModel dx="1108" dy="450" grid="1" gridSize="10" guides="1" tooltips="1" connect="1" arrows="1" fold="1" page="1" pageScale="1" pageWidth="850" pageHeight="1100" math="0" shadow="0">
      <root>
        <mxCell id="0" />
        <mxCell id="1" parent="0" />
        <mxCell id="YFCFPocianddqCIxzoPm-4" value="" style="edgeStyle=orthogonalEdgeStyle;rounded=0;orthogonalLoop=1;jettySize=auto;html=1;" edge="1" parent="1" source="YFCFPocianddqCIxzoPm-1" target="YFCFPocianddqCIxzoPm-3">
          <mxGeometry relative="1" as="geometry" />
        </mxCell>
        <mxCell id="YFCFPocianddqCIxzoPm-1" value="START" style="ellipse;whiteSpace=wrap;html=1;" vertex="1" parent="1">
          <mxGeometry x="350" y="40" width="120" height="60" as="geometry" />
        </mxCell>
        <mxCell id="YFCFPocianddqCIxzoPm-6" value="" style="edgeStyle=orthogonalEdgeStyle;rounded=0;orthogonalLoop=1;jettySize=auto;html=1;" edge="1" parent="1" source="YFCFPocianddqCIxzoPm-3" target="YFCFPocianddqCIxzoPm-5">
          <mxGeometry relative="1" as="geometry" />
        </mxCell>
        <mxCell id="YFCFPocianddqCIxzoPm-3" value="INPUT d" style="shape=parallelogram;perimeter=parallelogramPerimeter;whiteSpace=wrap;html=1;fixedSize=1;" vertex="1" parent="1">
          <mxGeometry x="350" y="140" width="120" height="50" as="geometry" />
        </mxCell>
        <mxCell id="YFCFPocianddqCIxzoPm-8" value="" style="edgeStyle=orthogonalEdgeStyle;rounded=0;orthogonalLoop=1;jettySize=auto;html=1;" edge="1" parent="1" source="YFCFPocianddqCIxzoPm-5" target="YFCFPocianddqCIxzoPm-7">
          <mxGeometry relative="1" as="geometry" />
        </mxCell>
        <mxCell id="YFCFPocianddqCIxzoPm-12" value="" style="edgeStyle=orthogonalEdgeStyle;rounded=0;orthogonalLoop=1;jettySize=auto;html=1;" edge="1" parent="1" source="YFCFPocianddqCIxzoPm-5" target="YFCFPocianddqCIxzoPm-11">
          <mxGeometry relative="1" as="geometry" />
        </mxCell>
        <mxCell id="YFCFPocianddqCIxzoPm-5" value="IF d&amp;lt;0" style="rhombus;whiteSpace=wrap;html=1;" vertex="1" parent="1">
          <mxGeometry x="370" y="240" width="80" height="80" as="geometry" />
        </mxCell>
        <mxCell id="YFCFPocianddqCIxzoPm-10" style="edgeStyle=orthogonalEdgeStyle;rounded=0;orthogonalLoop=1;jettySize=auto;html=1;entryX=0;entryY=0.5;entryDx=0;entryDy=0;" edge="1" parent="1" source="YFCFPocianddqCIxzoPm-7" target="YFCFPocianddqCIxzoPm-3">
          <mxGeometry relative="1" as="geometry">
            <mxPoint x="290" y="140" as="targetPoint" />
            <Array as="points">
              <mxPoint x="260" y="165" />
            </Array>
          </mxGeometry>
        </mxCell>
        <mxCell id="YFCFPocianddqCIxzoPm-7" value="SUM=SUM+d" style="whiteSpace=wrap;html=1;" vertex="1" parent="1">
          <mxGeometry x="190" y="250" width="120" height="60" as="geometry" />
        </mxCell>
        <mxCell id="YFCFPocianddqCIxzoPm-14" value="" style="edgeStyle=orthogonalEdgeStyle;rounded=0;orthogonalLoop=1;jettySize=auto;html=1;" edge="1" parent="1" source="YFCFPocianddqCIxzoPm-11" target="YFCFPocianddqCIxzoPm-13">
          <mxGeometry relative="1" as="geometry" />
        </mxCell>
        <mxCell id="YFCFPocianddqCIxzoPm-11" value="PRINT d" style="shape=parallelogram;perimeter=parallelogramPerimeter;whiteSpace=wrap;html=1;fixedSize=1;" vertex="1" parent="1">
          <mxGeometry x="350" y="360" width="120" height="50" as="geometry" />
        </mxCell>
        <mxCell id="YFCFPocianddqCIxzoPm-13" value="STOP" style="ellipse;whiteSpace=wrap;html=1;" vertex="1" parent="1">
          <mxGeometry x="350" y="450" width="120" height="40" as="geometry" />
        </mxCell>
      </root>
    </mxGraphModel>
  </diagram>
</mxfile>
